<svg width="150" height="155" viewBox="0 0 150 155" fill="none" xmlns="http://www.w3.org/2000/svg">
<path d="M137.5 57.8568H107.562L80.1875 15.6854C79 13.8854 77 12.9854 75 12.9854C73 12.9854 71 13.8854 69.8125 15.7496L42.4375 57.8568H12.5C9.0625 57.8568 6.25 60.7496 6.25 64.2854C6.25 64.8639 6.3125 65.4425 6.5 66.0211L22.375 125.614C23.8125 131.014 28.625 135 34.375 135H115.625C121.375 135 126.188 131.014 127.688 125.614L143.563 66.0211L143.75 64.2854C143.75 60.7496 140.938 57.8568 137.5 57.8568ZM75 30.8568L92.5 57.8568H57.5L75 30.8568ZM115.625 122.143L34.4375 122.207L20.6875 70.7139H129.375L115.625 122.143ZM75 83.5711C68.125 83.5711 62.5 89.3568 62.5 96.4282C62.5 103.5 68.125 109.285 75 109.285C81.875 109.285 87.5 103.5 87.5 96.4282C87.5 89.3568 81.875 83.5711 75 83.5711Z" fill="white"/>
</svg>
