<svg width="150" height="118" viewBox="0 0 150 118" fill="none" xmlns="http://www.w3.org/2000/svg">
<path d="M54.667 9.9541H95.1846V83.1233H54.667V9.9541Z" fill="#FF5F00"/>
<path d="M57.2397 46.5387C57.2397 31.6724 64.1854 18.4862 74.8611 9.95387C67.0154 3.74882 57.1113 0 46.3066 0C20.7088 0 0 20.8129 0 46.5387C0 72.2641 20.7088 93.0775 46.3061 93.0775C57.1107 93.0775 67.0148 89.3287 74.8611 83.123C64.1854 74.7203 57.2397 61.4051 57.2397 46.5387Z" fill="#EB001B"/>
<path d="M149.851 46.5387C149.851 72.2641 129.143 93.0775 103.545 93.0775C92.7406 93.0775 82.8365 89.3287 74.9902 83.123C85.7949 74.5913 92.6123 61.4051 92.6123 46.5387C92.6123 31.6724 85.666 18.4862 74.9902 9.95387C82.8359 3.74882 92.7406 0 103.545 0C129.143 0 149.851 20.9424 149.851 46.5387Z" fill="#F79E1B"/>
</svg>
