<svg width="150" height="150" viewBox="0 0 150 150" fill="none" xmlns="http://www.w3.org/2000/svg">
<rect width="150" height="150" rx="25" fill="#F8F8F8"/>
<path d="M139.938 75.7928C139.938 70.34 139.496 66.3608 138.539 62.2344H76.2949V86.8458H112.831C112.094 92.9621 108.116 102.173 99.277 108.363L99.1531 109.187L118.833 124.438L120.197 124.574C132.719 113.005 139.938 95.9832 139.938 75.7928Z" fill="#4285F4"/>
<path d="M76.2949 140.638C94.1943 140.638 109.221 134.743 120.197 124.574L99.277 108.362C93.6789 112.268 86.1653 114.994 76.2949 114.994C58.7637 114.994 43.8843 103.426 38.5802 87.4355L37.8027 87.5016L17.3389 103.344L17.0713 104.089C27.973 125.753 50.366 140.638 76.2949 140.638Z" fill="#34A853"/>
<path d="M38.5802 87.4358C37.1807 83.3093 36.3707 78.8877 36.3707 74.3193C36.3707 69.7504 37.1807 65.3293 38.5066 61.2028L38.4695 60.324L17.7492 44.2266L17.0713 44.5491C12.5782 53.5392 10 63.6346 10 74.3193C10 85.004 12.5782 95.0989 17.0713 104.089L38.5802 87.4358Z" fill="#FBBC05"/>
<path d="M76.2949 33.6432C88.7434 33.6432 97.1406 39.0224 101.929 43.5176L120.639 25.2429C109.148 14.5582 94.1943 8 76.2949 8C50.366 8 27.973 22.8848 17.0713 44.5489L38.5066 61.2025C43.8843 45.2123 58.7637 33.6432 76.2949 33.6432Z" fill="#EB4335"/>
</svg>
