<svg width="150" height="150" viewBox="0 0 150 150" fill="none" xmlns="http://www.w3.org/2000/svg">
<rect width="150" height="150" rx="25" fill="#F8F8F8"/>
<g clip-path="url(#clip0_287_293)">
<path d="M75 10C39.1017 10 10 39.1022 10 75C10 110.9 39.1022 140 75 140C110.901 140 140 110.9 140 75C140 39.1048 110.901 10.0036 74.999 10.0036L74.9995 10.0005L75 10ZM104.808 103.749C103.644 105.659 101.144 106.264 99.2348 105.092C83.9736 95.77 64.762 93.6586 42.1364 98.8281C41.0887 99.0665 39.9892 98.8791 39.0796 98.3071C38.17 97.7351 37.5248 96.8253 37.2858 95.7777C37.1667 95.259 37.1511 94.722 37.2398 94.1974C37.3286 93.6727 37.5199 93.1707 37.8029 92.7201C38.086 92.2695 38.4551 91.8791 38.8892 91.5713C39.3232 91.2636 39.8138 91.0445 40.3327 90.9265C65.0936 85.2695 86.3318 87.705 103.465 98.1761C105.375 99.3481 105.98 101.84 104.808 103.749ZM112.764 86.0505C111.296 88.4347 108.176 89.1878 105.794 87.7207C88.322 76.9815 61.6887 73.8711 41.0233 80.1441C38.343 80.9536 35.5125 79.4434 34.699 76.7677C33.8916 74.0875 35.4028 71.262 38.0785 70.4475C61.6841 63.2843 91.0306 66.7541 111.095 79.0838C113.478 80.5514 114.231 83.6709 112.764 86.0505ZM113.447 67.6205C92.4977 55.177 57.9345 54.0324 37.9332 60.1038C34.7213 61.0778 31.3246 59.2644 30.3516 56.0525C29.3781 52.8391 31.1895 49.4448 34.4039 48.4683C57.3637 41.4981 95.5329 42.8453 119.651 57.1636C122.547 58.878 123.494 62.6094 121.778 65.4943C120.071 68.3837 116.329 69.3359 113.45 67.6205H113.447Z" fill="#1ED760"/>
</g>
<defs>
<clipPath id="clip0_287_293">
<rect width="130" height="130" fill="white" transform="translate(10 10)"/>
</clipPath>
</defs>
</svg>
