<svg width="150" height="150" viewBox="0 0 150 150" fill="none" xmlns="http://www.w3.org/2000/svg">
<rect width="150" height="150" rx="25" fill="#F8F8F8"/>
<g clip-path="url(#clip0_287_307)">
<path d="M103.931 55.9473C112.686 62.2027 123.412 65.8834 134.997 65.8834V43.6037C132.804 43.6041 130.617 43.3754 128.473 42.9212V60.4585C116.889 60.4585 106.165 56.7784 97.4075 50.5234V95.9902C97.4075 118.735 78.9594 137.172 56.2044 137.172C47.7139 137.172 39.8221 134.607 33.2666 130.207C40.7488 137.853 51.1832 142.597 62.7266 142.597C85.4835 142.597 103.932 124.16 103.932 101.414V55.9473H103.931ZM111.98 33.4698C107.505 28.584 104.567 22.2699 103.931 15.2893V12.4238H97.7488C99.305 21.2959 104.614 28.8755 111.98 33.4698ZM47.6591 112.753C45.1592 109.477 43.8079 105.469 43.8139 101.349C43.8139 90.946 52.2519 82.5113 62.6624 82.5113C64.6022 82.5104 66.5305 82.8081 68.3797 83.394V60.616C66.2188 60.3202 64.0382 60.1941 61.8585 60.2405V77.9696C60.0084 77.3832 58.0791 77.0857 56.1383 77.0874C45.7283 77.0874 37.2908 85.5212 37.2908 95.9251C37.2908 103.282 41.5082 109.651 47.6591 112.753Z" fill="#FF004F"/>
<path d="M97.4075 50.5229C106.165 56.7779 116.889 60.458 128.472 60.458V42.9207C122.007 41.544 116.283 38.1671 111.979 33.4698C104.613 28.8751 99.305 21.2954 97.7488 12.4238H81.5098V101.413C81.4728 111.787 73.0494 120.187 62.6614 120.187C56.5405 120.187 51.102 117.271 47.6581 112.753C41.5081 109.651 37.2903 103.281 37.2903 95.9255C37.2903 85.5226 45.7278 77.0879 56.1378 77.0879C58.1323 77.0879 60.0547 77.3982 61.858 77.9701V60.241C39.5023 60.7027 21.5234 78.9596 21.5234 101.413C21.5234 112.622 26.0005 122.783 33.267 130.208C39.8225 134.607 47.7139 137.173 56.2048 137.173C78.9603 137.173 97.408 118.735 97.408 95.9902V50.5234L97.4075 50.5229Z" fill="black"/>
<path d="M128.473 42.9203V38.1794C122.642 38.1882 116.926 36.5562 111.979 33.4698C116.358 38.2615 122.125 41.5658 128.473 42.9212V42.9203ZM97.7484 12.4234C97.6001 11.5758 97.4863 10.7224 97.4072 9.86547V7H74.985V95.9898C74.9494 106.363 66.5259 114.763 56.1375 114.763C53.1925 114.768 50.2877 114.079 47.6578 112.754C51.1017 117.271 56.5402 120.187 62.6611 120.187C73.0486 120.187 81.473 111.788 81.5095 101.413V12.4239H97.7484V12.4234ZM61.8591 60.2406V55.1927C59.9854 54.9365 58.0965 54.8084 56.2055 54.8092C33.4477 54.8092 15 73.247 15 95.9898C15 110.249 22.2502 122.815 33.2677 130.207C26.0011 122.783 21.5241 112.621 21.5241 101.413C21.5241 78.9597 39.5025 60.7023 61.8591 60.2406Z" fill="#00F2EA"/>
</g>
<defs>
<clipPath id="clip0_287_307">
<rect width="120" height="135.938" fill="white" transform="translate(15 7)"/>
</clipPath>
</defs>
</svg>
