<svg width="150" height="150" viewBox="0 0 150 150" fill="none" xmlns="http://www.w3.org/2000/svg">
<rect width="150" height="150" rx="25" fill="#F8F8F8"/>
<path d="M134.769 49.4575L119.433 64.7427C116.387 100.239 86.4257 127.813 50.6249 127.813C43.2616 127.813 37.1679 126.645 32.5468 124.36C28.8397 122.481 27.3163 120.5 26.91 119.891C26.5739 119.381 26.3573 118.801 26.2764 118.195C26.1955 117.589 26.2523 116.973 26.4427 116.392C26.6331 115.811 26.952 115.281 27.3758 114.84C27.7997 114.4 28.3174 114.061 28.8905 113.848C28.9921 113.797 40.9765 109.227 48.746 100.442C43.9276 97.0111 39.6925 92.8274 36.203 88.0513C29.246 78.6059 21.8827 62.2036 26.3007 37.727C26.4396 36.9994 26.7724 36.3227 27.264 35.7685C27.7556 35.2144 28.3877 34.8033 29.0936 34.5786C29.8018 34.3467 30.5601 34.3141 31.2856 34.4843C32.011 34.6544 32.6757 35.0209 33.2069 35.5434C33.3593 35.7466 50.2694 52.4028 70.9374 57.7856V54.688C70.9573 51.467 71.6115 48.2815 72.8626 45.3133C74.1137 42.3451 75.9371 39.6524 78.2289 37.389C80.5206 35.1256 83.2357 33.3357 86.2192 32.1216C89.2027 30.9075 92.3961 30.2929 95.6171 30.313C99.8446 30.3733 103.984 31.5276 107.633 33.6634C111.282 35.7993 114.315 38.8438 116.437 42.5005H131.875C132.677 42.498 133.462 42.7329 134.13 43.1757C134.799 43.6185 135.322 44.2494 135.633 44.9888C135.925 45.7391 136 46.5571 135.847 47.3479C135.694 48.1387 135.321 48.8701 134.769 49.4575Z" fill="#40ACFB"/>
</svg>
