<svg width="40" height="40" viewBox="0 0 40 40" fill="none" xmlns="http://www.w3.org/2000/svg">
<rect width="40" height="40" rx="10" fill="#F8F8F8"/>
<g clip-path="url(#clip0_196_336)">
<path d="M34.3374 12.4314C34.1654 11.7682 33.8297 11.1635 33.3639 10.6777C32.8981 10.1918 32.3183 9.8417 31.6824 9.6622C29.3544 9 19.9848 9 19.9848 9C19.9848 9 10.6147 9.02004 8.28666 9.68224C7.65075 9.86175 7.07101 10.2119 6.60519 10.6978C6.13937 11.1836 5.80372 11.7883 5.63166 12.4516C4.92748 16.7658 4.65432 23.3396 5.651 27.4812C5.82307 28.1445 6.15873 28.7491 6.62455 29.235C7.09037 29.7208 7.6701 30.0709 8.306 30.2504C10.634 30.9126 20.0039 30.9126 20.0039 30.9126C20.0039 30.9126 29.3736 30.9126 31.7015 30.2504C32.3375 30.0709 32.9172 29.7208 33.3831 29.235C33.8489 28.7491 34.1846 28.1445 34.3567 27.4812C35.0994 23.1609 35.3283 16.5911 34.3374 12.4314Z" fill="#FF0000"/>
<path d="M17.0024 24.6518L24.7753 19.9563L17.0024 15.2607V24.6518Z" fill="white"/>
</g>
<defs>
<clipPath id="clip0_196_336">
<rect width="30" height="22" fill="white" transform="translate(5 9)"/>
</clipPath>
</defs>
</svg>
