<svg width="34" height="150" viewBox="0 0 34 150"  xmlns="http://www.w3.org/2000/svg">
<path d="M16.6673 33.3333C12.247 33.3333 8.00782 31.5774 4.88221 28.4518C1.7566 25.3262 0.000652313 21.0869 0.000652313 16.6667C0.000652313 12.2464 1.7566 8.00716 4.88221 4.88155C8.00782 1.75595 12.247 0 16.6673 0C21.0876 0 25.3268 1.75595 28.4524 4.88155C31.578 8.00716 33.334 12.2464 33.334 16.6667C33.334 21.0869 31.578 25.3262 28.4524 28.4518C25.3268 31.5774 21.0876 33.3333 16.6673 33.3333ZM16.6673 91.6667C12.247 91.6667 8.00782 89.9107 4.88221 86.7851C1.7566 83.6595 0.000652313 79.4203 0.000652313 75C0.000652313 70.5797 1.7566 66.3405 4.88221 63.2149C8.00782 60.0893 12.247 58.3333 16.6673 58.3333C21.0876 58.3333 25.3268 60.0893 28.4524 63.2149C31.578 66.3405 33.334 70.5797 33.334 75C33.334 79.4203 31.578 83.6595 28.4524 86.7851C25.3268 89.9107 21.0876 91.6667 16.6673 91.6667ZM16.6673 150C12.247 150 8.00782 148.244 4.88221 145.118C1.7566 141.993 0.000652313 137.754 0.000652313 133.333C0.000652313 128.913 1.7566 124.674 4.88221 121.548C8.00782 118.423 12.247 116.667 16.6673 116.667C21.0876 116.667 25.3268 118.423 28.4524 121.548C31.578 124.674 33.334 128.913 33.334 133.333C33.334 137.754 31.578 141.993 28.4524 145.118C25.3268 148.244 21.0876 150 16.6673 150Z" />
</svg>
