<svg width="151" height="280" viewBox="0 0 151 280" fill="none" xmlns="http://www.w3.org/2000/svg">
<path d="M143.711 7.61352C147.91 12.1937 150.009 18.0229 150.009 25.1013C150.009 32.1798 147.91 38.0091 143.711 42.5892L54.3981 140.022L143.711 237.454C147.91 242.034 150.009 247.863 150.009 254.942C150.009 262.02 147.91 267.849 143.711 272.43C139.513 277.01 134.169 279.3 127.681 279.3C121.192 279.3 115.848 277.01 111.65 272.43L6.30651 157.509C4.01644 155.011 2.39048 152.305 1.42864 149.39C0.482079 146.475 0.00878994 143.353 0.00878994 140.022C0.00878994 136.691 0.482079 133.568 1.42864 130.653C2.39048 127.738 4.01644 125.032 6.30651 122.534L111.65 7.61352C115.848 3.03337 121.192 0.743256 127.681 0.743256C134.169 0.743256 139.513 3.03337 143.711 7.61352Z" fill="white"/>
</svg>
