<svg width="150" height="150" viewBox="0 0 150 150" fill="none" xmlns="http://www.w3.org/2000/svg">
<path d="M75 40.625C86.4921 40.5868 97.7617 43.7924 107.513 49.8733C117.265 55.9542 125.102 64.6635 130.125 75C119.812 96.0625 98.75 109.375 75 109.375C51.25 109.375 30.1875 96.0625 19.875 75C24.8976 64.6635 32.7352 55.9542 42.4867 49.8733C52.2383 43.7924 63.5079 40.5868 75 40.625ZM75 28.125C43.75 28.125 17.0625 47.5625 6.25 75C17.0625 102.437 43.75 121.875 75 121.875C106.25 121.875 132.937 102.437 143.75 75C132.937 47.5625 106.25 28.125 75 28.125ZM75 59.375C79.144 59.375 83.1183 61.0212 86.0485 63.9515C88.9788 66.8817 90.625 70.856 90.625 75C90.625 79.144 88.9788 83.1183 86.0485 86.0485C83.1183 88.9788 79.144 90.625 75 90.625C70.856 90.625 66.8817 88.9788 63.9515 86.0485C61.0212 83.1183 59.375 79.144 59.375 75C59.375 70.856 61.0212 66.8817 63.9515 63.9515C66.8817 61.0212 70.856 59.375 75 59.375ZM75 46.875C59.5 46.875 46.875 59.5 46.875 75C46.875 90.5 59.5 103.125 75 103.125C90.5 103.125 103.125 90.5 103.125 75C103.125 59.5 90.5 46.875 75 46.875Z" fill="#979797"/>
</svg>
