<svg width="150" height="150" viewBox="0 0 150 150" fill="none" xmlns="http://www.w3.org/2000/svg">
<path fill-rule="evenodd" clip-rule="evenodd" d="M64.5312 48.9001C65.3269 49.2827 65.9984 49.8823 66.4683 50.6297C66.9383 51.3772 67.1875 52.2422 67.1875 53.1251V96.8751C67.1875 98.1183 66.6936 99.3106 65.8145 100.19C64.9354 101.069 63.7432 101.563 62.5 101.563C61.2568 101.563 60.0645 101.069 59.1854 100.19C58.3063 99.3106 57.8125 98.1183 57.8125 96.8751V62.8751L49.8062 69.2876C49.3252 69.6722 48.7732 69.9582 48.1817 70.1294C47.5902 70.3006 46.9708 70.3536 46.3588 70.2854C45.7468 70.2172 45.1542 70.0292 44.6149 69.732C44.0756 69.4347 43.6001 69.0342 43.2156 68.5533C42.8311 68.0723 42.545 67.5203 42.3738 66.9288C42.2026 66.3373 42.1496 65.7179 42.2178 65.1059C42.3555 63.8699 42.9786 62.7392 43.95 61.9626L59.575 49.4626C60.2644 48.9119 61.0953 48.5669 61.972 48.4674C62.8488 48.3679 63.7359 48.5179 64.5312 48.9001ZM79.2187 53.7751C79.7377 52.2213 80.732 50.8699 82.0611 49.9121C83.3902 48.9542 84.9867 48.4384 86.6249 48.4376H103.125C104.368 48.4376 105.56 48.9315 106.44 49.8106C107.319 50.6896 107.812 51.8819 107.812 53.1251C107.812 54.3683 107.319 55.5606 106.44 56.4397C105.56 57.3188 104.368 57.8126 103.125 57.8126H87.7499L84.625 67.1876H90.6249C95.1834 67.1876 99.5551 68.9985 102.778 72.2217C106.002 75.445 107.812 79.8167 107.812 84.3751C107.812 88.9335 106.002 93.3053 102.778 96.5285C99.5551 99.7518 95.1834 101.563 90.6249 101.563H78.125C76.8817 101.563 75.6895 101.069 74.8104 100.19C73.9313 99.3106 73.4375 98.1183 73.4375 96.8751C73.4375 95.6319 73.9313 94.4397 74.8104 93.5606C75.6895 92.6815 76.8817 92.1876 78.125 92.1876H90.6249C92.697 92.1876 94.6841 91.3645 96.1492 89.8994C97.6143 88.4343 98.4374 86.4471 98.4374 84.3751C98.4374 82.3031 97.6143 80.316 96.1492 78.8509C94.6841 77.3857 92.697 76.5626 90.6249 76.5626H82.4625C81.2247 76.5627 80.0046 76.2686 78.9028 75.7047C77.8009 75.1408 76.8488 74.3231 76.1249 73.3191C75.4011 72.315 74.9261 71.1534 74.7392 69.9298C74.5523 68.7062 74.6588 67.4557 75.05 66.2814L79.2187 53.7751Z" fill="white"/>
<path fill-rule="evenodd" clip-rule="evenodd" d="M70.775 10.4687C71.1576 9.67303 71.7571 9.00155 72.5046 8.53162C73.2521 8.06169 74.1171 7.81241 75 7.8125C79.5938 7.8125 84.0875 8.275 88.4375 9.15625C119.1 15.3813 142.188 42.4875 142.188 75C142.188 112.106 112.106 142.188 75 142.188C37.8938 142.188 7.8125 112.106 7.8125 75C7.8125 47.4375 24.4062 23.7687 48.125 13.4062C48.6922 13.1375 49.3077 12.9854 49.9348 12.959C50.562 12.9326 51.188 13.0324 51.7759 13.2526C52.3637 13.4727 52.9013 13.8086 53.3569 14.2405C53.8124 14.6723 54.1766 15.1912 54.4278 15.7665C54.679 16.3417 54.8121 16.9615 54.8192 17.5892C54.8263 18.2169 54.7073 18.8395 54.4692 19.4203C54.2311 20.0011 53.8788 20.5282 53.4332 20.9702C52.9876 21.4123 52.4577 21.7603 51.875 21.9938C42.3229 26.1626 34.0755 32.8361 28.0053 41.3081C21.9351 49.7801 18.268 59.7354 17.3921 70.1207C16.5161 80.5059 18.4638 90.9349 23.0291 100.304C27.5944 109.673 34.6075 117.634 43.3263 123.344C52.0451 129.054 62.1453 132.3 72.5582 132.741C82.971 133.181 93.3092 130.798 102.479 125.844C111.648 120.891 119.308 113.55 124.648 104.6C129.988 95.6495 132.809 85.4222 132.812 75C132.811 62.6685 128.868 50.6603 121.56 40.7278C114.251 30.7953 103.96 23.4583 92.1875 19.7875V28.125C92.1887 29.0971 91.8876 30.0455 91.326 30.839C90.7643 31.6324 89.9699 32.2316 89.0526 32.5536C88.1354 32.8756 87.1408 32.9045 86.2064 32.6362C85.272 32.3679 84.4442 31.8158 83.8375 31.0562L71.3375 15.4313C70.7855 14.7412 70.4398 13.9092 70.3403 13.0312C70.2408 12.1531 70.3915 11.2648 70.775 10.4687Z" fill="white"/>
</svg>
