<svg width="150" height="150" viewBox="0 0 150 150" fill="none" xmlns="http://www.w3.org/2000/svg">
<path fill-rule="evenodd" clip-rule="evenodd" d="M7.8125 75C7.8125 37.8938 37.8938 7.8125 75 7.8125C75.8837 7.81164 76.7496 8.06059 77.4979 8.53063C78.2462 9.00067 78.8464 9.67266 79.2293 10.4691C79.6122 11.2655 79.7621 12.154 79.6618 13.0319C79.5615 13.9099 79.2151 14.7417 78.6625 15.4313L66.1625 31.0563C65.3851 32.0276 64.2537 32.6504 63.0171 32.7875C61.7805 32.9246 60.5401 32.5649 59.5688 31.7875C58.5974 31.0101 57.9747 29.8786 57.8375 28.6421C57.7004 27.4055 58.0601 26.1651 58.8375 25.1938L64.4813 18.1438C51.1977 20.6029 39.1945 27.6358 30.5554 38.0217C21.9163 48.4076 17.1867 61.4907 17.1875 75C17.19 85.4224 20.01 95.6503 25.3491 104.601C30.6881 113.552 38.3476 120.894 47.517 125.848C56.6865 130.803 67.0248 133.187 77.4379 132.747C87.8511 132.308 97.9517 129.061 106.671 123.352C115.39 117.642 122.404 109.681 126.97 100.312C131.536 90.9432 133.484 80.514 132.608 70.1285C131.732 59.7429 128.065 49.7872 121.995 41.315C115.925 32.8427 107.677 26.169 98.125 22C96.9854 21.5027 96.09 20.5731 95.6358 19.4157C95.1817 18.2582 95.2059 16.9677 95.7031 15.8281C96.2004 14.6885 97.13 13.7931 98.2875 13.339C99.4449 12.8848 100.735 12.909 101.875 13.4063C113.858 18.6379 124.055 27.2518 131.215 38.1923C138.376 49.1328 142.189 61.9246 142.188 75C142.188 112.106 112.106 142.188 75 142.188C37.8938 142.188 7.8125 112.106 7.8125 75ZM64.5313 48.9C65.327 49.2826 65.9985 49.8822 66.4684 50.6296C66.9383 51.3771 67.1876 52.2421 67.1875 53.125V96.875C67.1875 98.1182 66.6937 99.3105 65.8146 100.19C64.9355 101.069 63.7432 101.563 62.5 101.563C61.2568 101.563 60.0645 101.069 59.1855 100.19C58.3064 99.3105 57.8125 98.1182 57.8125 96.875V62.875L49.8063 69.2875C48.8349 70.0649 47.5945 70.4246 46.3579 70.2875C45.1214 70.1504 43.9899 69.5276 43.2125 68.5563C42.4351 67.5849 42.0754 66.3445 42.2125 65.1079C42.3497 63.8714 42.9724 62.7399 43.9438 61.9625L59.5688 49.4625C60.2588 48.9105 61.0908 48.5649 61.9689 48.4653C62.8469 48.3658 63.7352 48.5165 64.5313 48.9ZM79.2188 53.775C79.7378 52.2212 80.7321 50.8698 82.0612 49.9119C83.3902 48.9541 84.9868 48.4383 86.625 48.4375H103.125C104.368 48.4375 105.561 48.9314 106.44 49.8104C107.319 50.6895 107.813 51.8818 107.813 53.125C107.813 54.3682 107.319 55.5605 106.44 56.4396C105.561 57.3187 104.368 57.8125 103.125 57.8125H87.75L84.625 67.1875H90.625C95.1834 67.1875 99.5551 68.9983 102.778 72.2216C106.002 75.4449 107.813 79.8166 107.813 84.375C107.813 88.9334 106.002 93.3051 102.778 96.5284C99.5551 99.7517 95.1834 101.563 90.625 101.563H78.125C76.8818 101.563 75.6895 101.069 74.8105 100.19C73.9314 99.3105 73.4375 98.1182 73.4375 96.875C73.4375 95.6318 73.9314 94.4395 74.8105 93.5605C75.6895 92.6814 76.8818 92.1875 78.125 92.1875H90.625C92.697 92.1875 94.6842 91.3644 96.1493 89.8993C97.6144 88.4342 98.4375 86.447 98.4375 84.375C98.4375 82.303 97.6144 80.3159 96.1493 78.8507C94.6842 77.3856 92.697 76.5625 90.625 76.5625H82.4625C81.2247 76.5626 80.0047 76.2685 78.9028 75.7046C77.801 75.1407 76.8489 74.323 76.125 73.319C75.4011 72.3149 74.9262 71.1533 74.7393 69.9297C74.5524 68.7061 74.6589 67.4556 75.05 66.2813L79.2188 53.775Z" fill="white"/>
</svg>
