<svg width="150" height="150" viewBox="0 0 150 150" fill="none" xmlns="http://www.w3.org/2000/svg">
<path d="M74.9998 132.143C106.559 132.143 132.143 106.559 132.143 75.0003C132.143 43.4411 106.559 17.8574 74.9998 17.8574C43.4407 17.8574 17.8569 43.4411 17.8569 75.0003C17.8569 106.559 43.4407 132.143 74.9998 132.143Z" stroke="#979797" stroke-width="5" stroke-linecap="round" stroke-linejoin="round"/>
<path d="M57.1429 64.2857C61.0877 64.2857 64.2857 61.0877 64.2857 57.1429C64.2857 53.198 61.0877 50 57.1429 50C53.198 50 50 53.198 50 57.1429C50 61.0877 53.198 64.2857 57.1429 64.2857Z" fill="#979797"/>
<path d="M92.8567 64.2857C96.8016 64.2857 99.9996 61.0877 99.9996 57.1429C99.9996 53.198 96.8016 50 92.8567 50C88.9118 50 85.7139 53.198 85.7139 57.1429C85.7139 61.0877 88.9118 64.2857 92.8567 64.2857Z" fill="#979797"/>
<path d="M53.5713 82.1436C57.8784 91.665 65.0213 96.4293 74.9999 96.4293C84.9784 96.4293 92.1213 91.665 96.4284 82.1436" stroke="#979797" stroke-width="5" stroke-linecap="round" stroke-linejoin="round"/>
</svg>
